<svg xmlns="http://www.w3.org/2000/svg" fill="none" viewBox="0 0 182 40" height="40" width="182">
<g clip-path="url(#clip0_1242_11)">
<path fill="#C4CBE9" d="M7.64653 0.000178433H7.64233C7.4095 -0.000342864 7.17888 0.047121 6.96379 0.139829C6.7487 0.232537 6.55338 0.368652 6.38913 0.540316C6.22168 0.713207 6.08891 0.918986 5.99854 1.1457C5.90817 1.37241 5.86199 1.61555 5.86268 1.86099V29.7635C5.86268 30.7867 6.666 31.6211 7.6536 31.6237C11.8171 31.634 18.7926 32.5368 23.6047 37.7755V8.57479C23.6047 8.22795 23.5196 7.90212 23.3589 7.63248C19.4092 1.01567 11.8194 0.0103334 7.64653 0.000178433ZM44.1238 29.7635V1.86081C44.1238 1.36147 43.9368 0.892412 43.5974 0.54014C43.4331 0.368521 43.2378 0.232433 43.0228 0.139728C42.8078 0.0470224 42.5772 -0.000465805 42.3443 3.44392e-06H42.3399C38.1671 0.0103335 30.5774 1.01567 26.6277 7.63248C26.4668 7.90212 26.3819 8.22795 26.3819 8.57479V37.7753C31.1941 32.5365 38.1696 31.6339 42.333 31.6235C43.3204 31.6209 44.1238 30.7864 44.1238 29.7635Z"></path>
<path fill="#113F84" d="M48.1976 6.43481H46.9006V29.7633C46.9006 32.3758 44.8545 34.5061 42.3395 34.5125C38.8079 34.5213 32.9849 35.2397 28.861 39.3001C35.9934 37.4834 43.5122 38.6643 47.7972 39.6802C48.0597 39.7431 48.3325 39.7435 48.5952 39.6813C48.8578 39.619 49.1035 39.4957 49.3138 39.3205C49.524 39.1467 49.6937 38.9258 49.8102 38.6741C49.9266 38.4223 49.9867 38.1465 49.986 37.8671V8.29527C49.9862 7.26944 49.1837 6.43481 48.1976 6.43481ZM3.08534 29.7633V6.43481H1.78839C0.802471 6.43481 0 7.26944 0 8.29527V37.8666C0 38.4357 0.24505 38.9654 0.672204 39.3201C0.882477 39.4951 1.12817 39.6186 1.39083 39.6809C1.6535 39.7431 1.9263 39.7427 2.18879 39.6797C6.47379 38.6637 13.9927 37.4829 21.1248 39.2995C17.001 35.2393 11.1781 34.5211 7.64654 34.5123C5.13158 34.5061 3.08534 32.3758 3.08534 29.7633Z"></path>
<path fill="black" d="M64.9767 27.2774C65.8602 27.2774 66.5073 27.0285 66.918 26.5307C67.3287 26.0329 67.534 25.4418 67.534 24.7574V23.4507C67.534 22.6418 67.2727 22.0694 66.75 21.7334C66.2273 21.3849 65.6362 21.2107 64.9767 21.2107H63.5207V27.2774H64.9767ZM67.2727 14.6587C67.2727 13.912 67.0673 13.3956 66.6567 13.1094C66.246 12.8107 65.6549 12.6614 64.8833 12.6614H63.5207V18.056H65.0327C65.7544 18.056 66.3082 17.776 66.694 17.216C67.0798 16.6436 67.2727 15.9467 67.2727 15.1254V14.6587ZM66.246 31.104C65.2753 31.104 64.0184 31.0791 62.4753 31.0294C60.9322 30.9796 59.8247 30.9485 59.1527 30.936H57.3607V9.0587H60.59C61.374 9.0587 62.27 9.03381 63.278 8.98404C64.286 8.92181 65.014 8.8907 65.462 8.8907C66.918 8.8907 68.1438 9.00892 69.1393 9.24537C70.1473 9.48181 70.9375 9.83648 71.51 10.3094C72.0824 10.7823 72.4869 11.3298 72.7233 11.952C72.9722 12.5743 73.0967 13.3147 73.0967 14.1734C73.0967 15.4925 72.7918 16.6249 72.182 17.5707C71.5722 18.5165 70.6887 19.1076 69.5313 19.344C72.4682 19.6054 73.9367 21.3289 73.9367 24.5147C73.9367 25.4729 73.7935 26.344 73.5073 27.128C73.2211 27.8996 72.7793 28.5903 72.182 29.2C71.5971 29.7974 70.8007 30.264 69.7927 30.6C68.7847 30.936 67.6024 31.104 66.246 31.104ZM82.009 22.48C82.009 24.5458 82.1645 25.9831 82.4756 26.792C82.7992 27.6009 83.3592 28.0054 84.1556 28.0054C84.7405 28.0054 85.1823 27.8623 85.481 27.576C85.7796 27.2774 86.0036 26.6738 86.153 25.7654C86.3147 24.8445 86.3956 23.4694 86.3956 21.64V17.1414C86.3956 15.3618 86.2214 14.0365 85.873 13.1654C85.5245 12.2943 84.9521 11.8587 84.1556 11.8587C83.3592 11.8587 82.7992 12.288 82.4756 13.1467C82.1645 13.9929 82.009 15.5423 82.009 17.7947V22.48ZM83.7636 31.328C82.7307 31.328 81.7974 31.2347 80.9636 31.048C80.1423 30.8614 79.433 30.6 78.8356 30.264C78.2383 29.928 77.7156 29.4987 77.2676 28.976C76.8321 28.4534 76.4774 27.8934 76.2036 27.296C75.9423 26.6987 75.7307 26.0018 75.569 25.2054C75.4072 24.3965 75.2952 23.5938 75.233 22.7974C75.1707 21.9885 75.1396 21.08 75.1396 20.072C75.1396 18.5787 75.2143 17.2783 75.3636 16.1707C75.5254 15.0631 75.8179 14.024 76.241 13.0534C76.6641 12.0703 77.2241 11.2738 77.921 10.664C78.6303 10.0543 79.5387 9.57515 80.6463 9.2267C81.7663 8.87826 83.0854 8.70404 84.6036 8.70404C85.649 8.70404 86.5885 8.80359 87.4223 9.0027C88.2561 9.18937 88.9716 9.4507 89.569 9.7867C90.1663 10.1227 90.6827 10.5583 91.1183 11.0934C91.5663 11.6285 91.921 12.2009 92.1823 12.8107C92.4561 13.408 92.6739 14.1111 92.8356 14.92C92.9974 15.7289 93.1094 16.5316 93.1716 17.328C93.2339 18.1245 93.265 19.0267 93.265 20.0347C93.265 21.528 93.1841 22.8285 93.0223 23.936C92.8605 25.0436 92.5681 26.0827 92.145 27.0534C91.7219 28.0116 91.1556 28.7956 90.4463 29.4054C89.737 30.0027 88.8223 30.4756 87.7023 30.824C86.5947 31.16 85.2819 31.328 83.7636 31.328ZM101.532 22.48C101.532 24.5458 101.688 25.9831 101.999 26.792C102.323 27.6009 102.883 28.0054 103.679 28.0054C104.264 28.0054 104.706 27.8623 105.004 27.576C105.303 27.2774 105.527 26.6738 105.676 25.7654C105.838 24.8445 105.919 23.4694 105.919 21.64V17.1414C105.919 15.3618 105.745 14.0365 105.396 13.1654C105.048 12.2943 104.476 11.8587 103.679 11.8587C102.883 11.8587 102.323 12.288 101.999 13.1467C101.688 13.9929 101.532 15.5423 101.532 17.7947V22.48ZM103.287 31.328C102.254 31.328 101.321 31.2347 100.487 31.048C99.6657 30.8614 98.9564 30.6 98.3591 30.264C97.7617 29.928 97.2391 29.4987 96.7911 28.976C96.3555 28.4534 96.0008 27.8934 95.7271 27.296C95.4657 26.6987 95.2542 26.0018 95.0924 25.2054C94.9306 24.3965 94.8186 23.5938 94.7564 22.7974C94.6942 21.9885 94.6631 21.08 94.6631 20.072C94.6631 18.5787 94.7377 17.2783 94.8871 16.1707C95.0488 15.0631 95.3413 14.024 95.7644 13.0534C96.1875 12.0703 96.7475 11.2738 97.4444 10.664C98.1537 10.0543 99.0622 9.57515 100.17 9.2267C101.29 8.87826 102.609 8.70404 104.127 8.70404C105.172 8.70404 106.112 8.80359 106.946 9.0027C107.78 9.18937 108.495 9.4507 109.092 9.7867C109.69 10.1227 110.206 10.5583 110.642 11.0934C111.09 11.6285 111.444 12.2009 111.706 12.8107C111.98 13.408 112.197 14.1111 112.359 14.92C112.521 15.7289 112.633 16.5316 112.695 17.328C112.757 18.1245 112.788 19.0267 112.788 20.0347C112.788 21.528 112.708 22.8285 112.546 23.936C112.384 25.0436 112.092 26.0827 111.668 27.0534C111.245 28.0116 110.679 28.7956 109.97 29.4054C109.26 30.0027 108.346 30.4756 107.226 30.824C106.118 31.16 104.805 31.328 103.287 31.328ZM125.312 30.936C125.163 30.7494 124.839 30.0214 124.341 28.752C123.856 27.4703 123.283 26.0267 122.624 24.4214C121.977 22.8036 121.404 21.5778 120.907 20.744V30.936H114.728V9.0587H120.907V19.5307L125.555 9.0587H131.771L126.208 19.3254C126.569 19.5743 127.048 20.2525 127.645 21.36C128.243 22.4676 128.803 23.6311 129.325 24.8507C129.848 26.0703 130.389 27.296 130.949 28.528C131.509 29.7476 131.92 30.5503 132.181 30.936H125.312ZM132.691 30.936V27.072L139.206 15.1627L140.699 13.408L133.307 13.8187V9.0587H147.606V12.2507L140.568 25.1867L139.28 26.6427L147.83 26.232V30.936H132.691ZM162.744 30.936H149.509V9.0587H162.464L162.09 13.464L155.688 13.2774V17.496H160.728V21.864L155.688 21.4907V26.456L162.744 26.2694V30.936ZM170.375 30.936H164.439V10.8134L163.524 9.0587H170.393L173.828 16.152L177.113 23.2267L176.199 14.92V9.0587H182.153V30.936H176.46L172.017 22.2934L169.273 16.88L170.375 24.048V30.936Z"></path>
</g>
<defs>
<clipPath id="clip0_1242_11">
<rect fill="white" height="40" width="182"></rect>
</clipPath>
</defs>
</svg>
